<svg xmlns="http://www.w3.org/2000/svg" xmlns:xlink="http://www.w3.org/1999/xlink" version="1.1" class="marks" width="1116" height="347" viewBox="0 0 1116 347"><rect width="1116" height="347" fill="white"/><g fill="none" stroke-miterlimit="10" transform="translate(39,10)"><g class="mark-group role-frame root" role="graphics-object" aria-roledescription="group mark container"><g transform="translate(0,0)"><path class="background" aria-hidden="true" d="M0.5,0.5h1070v300h-1070Z" stroke="#ddd"/><g><g class="mark-group role-axis" aria-hidden="true"><g transform="translate(0.5,300.5)"><path class="background" aria-hidden="true" d="M0,0h0v0h0Z" pointer-events="none"/><g><g class="mark-rule role-axis-grid" pointer-events="none"><line transform="translate(0,-300)" x2="0" y2="300" stroke="#ddd" stroke-width="1" opacity="1"/><line transform="translate(18,-300)" x2="0" y2="300" stroke="#ddd" stroke-width="1" opacity="1"/><line transform="translate(36,-300)" x2="0" y2="300" stroke="#ddd" stroke-width="1" opacity="1"/><line transform="translate(54,-300)" x2="0" y2="300" stroke="#ddd" stroke-width="1" opacity="1"/><line transform="translate(73,-300)" x2="0" y2="300" stroke="#ddd" stroke-width="1" opacity="1"/><line transform="translate(91,-300)" x2="0" y2="300" stroke="#ddd" stroke-width="1" opacity="1"/><line transform="translate(109,-300)" x2="0" y2="300" stroke="#ddd" stroke-width="1" opacity="1"/><line transform="translate(127,-300)" x2="0" y2="300" stroke="#ddd" stroke-width="1" opacity="1"/><line transform="translate(145,-300)" x2="0" y2="300" stroke="#ddd" stroke-width="1" opacity="1"/><line transform="translate(163,-300)" x2="0" y2="300" stroke="#ddd" stroke-width="1" opacity="1"/><line transform="translate(181,-300)" x2="0" y2="300" stroke="#ddd" stroke-width="1" opacity="1"/><line transform="translate(199,-300)" x2="0" y2="300" stroke="#ddd" stroke-width="1" opacity="1"/><line transform="translate(218,-300)" x2="0" y2="300" stroke="#ddd" stroke-width="1" opacity="1"/><line transform="translate(236,-300)" x2="0" y2="300" stroke="#ddd" stroke-width="1" opacity="1"/><line transform="translate(254,-300)" x2="0" y2="300" stroke="#ddd" stroke-width="1" opacity="1"/><line transform="translate(272,-300)" x2="0" y2="300" stroke="#ddd" stroke-width="1" opacity="1"/><line transform="translate(290,-300)" x2="0" y2="300" stroke="#ddd" stroke-width="1" opacity="1"/><line transform="translate(308,-300)" x2="0" y2="300" stroke="#ddd" stroke-width="1" opacity="1"/><line transform="translate(326,-300)" x2="0" y2="300" stroke="#ddd" stroke-width="1" opacity="1"/><line transform="translate(344,-300)" x2="0" y2="300" stroke="#ddd" stroke-width="1" opacity="1"/><line transform="translate(363,-300)" x2="0" y2="300" stroke="#ddd" stroke-width="1" opacity="1"/><line transform="translate(381,-300)" x2="0" y2="300" stroke="#ddd" stroke-width="1" opacity="1"/><line transform="translate(399,-300)" x2="0" y2="300" stroke="#ddd" stroke-width="1" opacity="1"/><line transform="translate(417,-300)" x2="0" y2="300" stroke="#ddd" stroke-width="1" opacity="1"/><line transform="translate(435,-300)" x2="0" y2="300" stroke="#ddd" stroke-width="1" opacity="1"/><line transform="translate(453,-300)" x2="0" y2="300" stroke="#ddd" stroke-width="1" opacity="1"/><line transform="translate(471,-300)" x2="0" y2="300" stroke="#ddd" stroke-width="1" opacity="1"/><line transform="translate(490,-300)" x2="0" y2="300" stroke="#ddd" stroke-width="1" opacity="1"/><line transform="translate(508,-300)" x2="0" y2="300" stroke="#ddd" stroke-width="1" opacity="1"/><line transform="translate(526,-300)" x2="0" y2="300" stroke="#ddd" stroke-width="1" opacity="1"/><line transform="translate(544,-300)" x2="0" y2="300" stroke="#ddd" stroke-width="1" opacity="1"/><line transform="translate(562,-300)" x2="0" y2="300" stroke="#ddd" stroke-width="1" opacity="1"/><line transform="translate(580,-300)" x2="0" y2="300" stroke="#ddd" stroke-width="1" opacity="1"/><line transform="translate(598,-300)" x2="0" y2="300" stroke="#ddd" stroke-width="1" opacity="1"/><line transform="translate(616,-300)" x2="0" y2="300" stroke="#ddd" stroke-width="1" opacity="1"/><line transform="translate(635,-300)" x2="0" y2="300" stroke="#ddd" stroke-width="1" opacity="1"/><line transform="translate(653,-300)" x2="0" y2="300" stroke="#ddd" stroke-width="1" opacity="1"/><line transform="translate(671,-300)" x2="0" y2="300" stroke="#ddd" stroke-width="1" opacity="1"/><line transform="translate(689,-300)" x2="0" y2="300" stroke="#ddd" stroke-width="1" opacity="1"/><line transform="translate(707,-300)" x2="0" y2="300" stroke="#ddd" stroke-width="1" opacity="1"/><line transform="translate(725,-300)" x2="0" y2="300" stroke="#ddd" stroke-width="1" opacity="1"/><line transform="translate(743,-300)" x2="0" y2="300" stroke="#ddd" stroke-width="1" opacity="1"/><line transform="translate(761,-300)" x2="0" y2="300" stroke="#ddd" stroke-width="1" opacity="1"/><line transform="translate(780,-300)" x2="0" y2="300" stroke="#ddd" stroke-width="1" opacity="1"/><line transform="translate(798,-300)" x2="0" y2="300" stroke="#ddd" stroke-width="1" opacity="1"/><line transform="translate(816,-300)" x2="0" y2="300" stroke="#ddd" stroke-width="1" opacity="1"/><line transform="translate(834,-300)" x2="0" y2="300" stroke="#ddd" stroke-width="1" opacity="1"/><line transform="translate(852,-300)" x2="0" y2="300" stroke="#ddd" stroke-width="1" opacity="1"/><line transform="translate(870,-300)" x2="0" y2="300" stroke="#ddd" stroke-width="1" opacity="1"/><line transform="translate(888,-300)" x2="0" y2="300" stroke="#ddd" stroke-width="1" opacity="1"/><line transform="translate(907,-300)" x2="0" y2="300" stroke="#ddd" stroke-width="1" opacity="1"/><line transform="translate(925,-300)" x2="0" y2="300" stroke="#ddd" stroke-width="1" opacity="1"/><line transform="translate(943,-300)" x2="0" y2="300" stroke="#ddd" stroke-width="1" opacity="1"/><line transform="translate(961,-300)" x2="0" y2="300" stroke="#ddd" stroke-width="1" opacity="1"/><line transform="translate(979,-300)" x2="0" y2="300" stroke="#ddd" stroke-width="1" opacity="1"/><line transform="translate(997,-300)" x2="0" y2="300" stroke="#ddd" stroke-width="1" opacity="1"/><line transform="translate(1015,-300)" x2="0" y2="300" stroke="#ddd" stroke-width="1" opacity="1"/><line transform="translate(1033,-300)" x2="0" y2="300" stroke="#ddd" stroke-width="1" opacity="1"/><line transform="translate(1052,-300)" x2="0" y2="300" stroke="#ddd" stroke-width="1" opacity="1"/><line transform="translate(1070,-300)" x2="0" y2="300" stroke="#ddd" stroke-width="1" opacity="1"/></g></g><path class="foreground" aria-hidden="true" d="" pointer-events="none" display="none"/></g></g><g class="mark-group role-axis" aria-hidden="true"><g transform="translate(0.5,0.5)"><path class="background" aria-hidden="true" d="M0,0h0v0h0Z" pointer-events="none"/><g><g class="mark-rule role-axis-grid" pointer-events="none"><line transform="translate(0,300)" x2="1070" y2="0" stroke="#ddd" stroke-width="1" opacity="1"/><line transform="translate(0,273)" x2="1070" y2="0" stroke="#ddd" stroke-width="1" opacity="1"/><line transform="translate(0,245)" x2="1070" y2="0" stroke="#ddd" stroke-width="1" opacity="1"/><line transform="translate(0,218)" x2="1070" y2="0" stroke="#ddd" stroke-width="1" opacity="1"/><line transform="translate(0,191)" x2="1070" y2="0" stroke="#ddd" stroke-width="1" opacity="1"/><line transform="translate(0,164)" x2="1070" y2="0" stroke="#ddd" stroke-width="1" opacity="1"/><line transform="translate(0,136)" x2="1070" y2="0" stroke="#ddd" stroke-width="1" opacity="1"/><line transform="translate(0,109)" x2="1070" y2="0" stroke="#ddd" stroke-width="1" opacity="1"/><line transform="translate(0,82)" x2="1070" y2="0" stroke="#ddd" stroke-width="1" opacity="1"/><line transform="translate(0,55)" x2="1070" y2="0" stroke="#ddd" stroke-width="1" opacity="1"/><line transform="translate(0,27)" x2="1070" y2="0" stroke="#ddd" stroke-width="1" opacity="1"/><line transform="translate(0,0)" x2="1070" y2="0" stroke="#ddd" stroke-width="1" opacity="1"/></g></g><path class="foreground" aria-hidden="true" d="" pointer-events="none" display="none"/></g></g><g class="mark-group role-axis" role="graphics-symbol" aria-roledescription="axis" aria-label="X-axis titled 'time' for a time scale with values from Tuesday, 24 September 2024, 7:08:00 PM to Tuesday, 24 September 2024, 8:07:01 PM"><g transform="translate(0.5,300.5)"><path class="background" aria-hidden="true" d="M0,0h0v0h0Z" pointer-events="none"/><g><g class="mark-rule role-axis-tick" pointer-events="none"><line transform="translate(0,0)" x2="0" y2="5" stroke="#888" stroke-width="1" opacity="1"/><line transform="translate(18,0)" x2="0" y2="5" stroke="#888" stroke-width="1" opacity="1"/><line transform="translate(36,0)" x2="0" y2="5" stroke="#888" stroke-width="1" opacity="1"/><line transform="translate(54,0)" x2="0" y2="5" stroke="#888" stroke-width="1" opacity="1"/><line transform="translate(73,0)" x2="0" y2="5" stroke="#888" stroke-width="1" opacity="1"/><line transform="translate(91,0)" x2="0" y2="5" stroke="#888" stroke-width="1" opacity="1"/><line transform="translate(109,0)" x2="0" y2="5" stroke="#888" stroke-width="1" opacity="1"/><line transform="translate(127,0)" x2="0" y2="5" stroke="#888" stroke-width="1" opacity="1"/><line transform="translate(145,0)" x2="0" y2="5" stroke="#888" stroke-width="1" opacity="1"/><line transform="translate(163,0)" x2="0" y2="5" stroke="#888" stroke-width="1" opacity="1"/><line transform="translate(181,0)" x2="0" y2="5" stroke="#888" stroke-width="1" opacity="1"/><line transform="translate(199,0)" x2="0" y2="5" stroke="#888" stroke-width="1" opacity="1"/><line transform="translate(218,0)" x2="0" y2="5" stroke="#888" stroke-width="1" opacity="1"/><line transform="translate(236,0)" x2="0" y2="5" stroke="#888" stroke-width="1" opacity="1"/><line transform="translate(254,0)" x2="0" y2="5" stroke="#888" stroke-width="1" opacity="1"/><line transform="translate(272,0)" x2="0" y2="5" stroke="#888" stroke-width="1" opacity="1"/><line transform="translate(290,0)" x2="0" y2="5" stroke="#888" stroke-width="1" opacity="1"/><line transform="translate(308,0)" x2="0" y2="5" stroke="#888" stroke-width="1" opacity="1"/><line transform="translate(326,0)" x2="0" y2="5" stroke="#888" stroke-width="1" opacity="1"/><line transform="translate(344,0)" x2="0" y2="5" stroke="#888" stroke-width="1" opacity="1"/><line transform="translate(363,0)" x2="0" y2="5" stroke="#888" stroke-width="1" opacity="1"/><line transform="translate(381,0)" x2="0" y2="5" stroke="#888" stroke-width="1" opacity="1"/><line transform="translate(399,0)" x2="0" y2="5" stroke="#888" stroke-width="1" opacity="1"/><line transform="translate(417,0)" x2="0" y2="5" stroke="#888" stroke-width="1" opacity="1"/><line transform="translate(435,0)" x2="0" y2="5" stroke="#888" stroke-width="1" opacity="1"/><line transform="translate(453,0)" x2="0" y2="5" stroke="#888" stroke-width="1" opacity="1"/><line transform="translate(471,0)" x2="0" y2="5" stroke="#888" stroke-width="1" opacity="1"/><line transform="translate(490,0)" x2="0" y2="5" stroke="#888" stroke-width="1" opacity="1"/><line transform="translate(508,0)" x2="0" y2="5" stroke="#888" stroke-width="1" opacity="1"/><line transform="translate(526,0)" x2="0" y2="5" stroke="#888" stroke-width="1" opacity="1"/><line transform="translate(544,0)" x2="0" y2="5" stroke="#888" stroke-width="1" opacity="1"/><line transform="translate(562,0)" x2="0" y2="5" stroke="#888" stroke-width="1" opacity="1"/><line transform="translate(580,0)" x2="0" y2="5" stroke="#888" stroke-width="1" opacity="1"/><line transform="translate(598,0)" x2="0" y2="5" stroke="#888" stroke-width="1" opacity="1"/><line transform="translate(616,0)" x2="0" y2="5" stroke="#888" stroke-width="1" opacity="1"/><line transform="translate(635,0)" x2="0" y2="5" stroke="#888" stroke-width="1" opacity="1"/><line transform="translate(653,0)" x2="0" y2="5" stroke="#888" stroke-width="1" opacity="1"/><line transform="translate(671,0)" x2="0" y2="5" stroke="#888" stroke-width="1" opacity="1"/><line transform="translate(689,0)" x2="0" y2="5" stroke="#888" stroke-width="1" opacity="1"/><line transform="translate(707,0)" x2="0" y2="5" stroke="#888" stroke-width="1" opacity="1"/><line transform="translate(725,0)" x2="0" y2="5" stroke="#888" stroke-width="1" opacity="1"/><line transform="translate(743,0)" x2="0" y2="5" stroke="#888" stroke-width="1" opacity="1"/><line transform="translate(761,0)" x2="0" y2="5" stroke="#888" stroke-width="1" opacity="1"/><line transform="translate(780,0)" x2="0" y2="5" stroke="#888" stroke-width="1" opacity="1"/><line transform="translate(798,0)" x2="0" y2="5" stroke="#888" stroke-width="1" opacity="1"/><line transform="translate(816,0)" x2="0" y2="5" stroke="#888" stroke-width="1" opacity="1"/><line transform="translate(834,0)" x2="0" y2="5" stroke="#888" stroke-width="1" opacity="1"/><line transform="translate(852,0)" x2="0" y2="5" stroke="#888" stroke-width="1" opacity="1"/><line transform="translate(870,0)" x2="0" y2="5" stroke="#888" stroke-width="1" opacity="1"/><line transform="translate(888,0)" x2="0" y2="5" stroke="#888" stroke-width="1" opacity="1"/><line transform="translate(907,0)" x2="0" y2="5" stroke="#888" stroke-width="1" opacity="1"/><line transform="translate(925,0)" x2="0" y2="5" stroke="#888" stroke-width="1" opacity="1"/><line transform="translate(943,0)" x2="0" y2="5" stroke="#888" stroke-width="1" opacity="1"/><line transform="translate(961,0)" x2="0" y2="5" stroke="#888" stroke-width="1" opacity="1"/><line transform="translate(979,0)" x2="0" y2="5" stroke="#888" stroke-width="1" opacity="1"/><line transform="translate(997,0)" x2="0" y2="5" stroke="#888" stroke-width="1" opacity="1"/><line transform="translate(1015,0)" x2="0" y2="5" stroke="#888" stroke-width="1" opacity="1"/><line transform="translate(1033,0)" x2="0" y2="5" stroke="#888" stroke-width="1" opacity="1"/><line transform="translate(1052,0)" x2="0" y2="5" stroke="#888" stroke-width="1" opacity="1"/><line transform="translate(1070,0)" x2="0" y2="5" stroke="#888" stroke-width="1" opacity="1"/></g><g class="mark-text role-axis-label" pointer-events="none"><text text-anchor="start" transform="translate(0,15)" font-family="sans-serif" font-size="10px" fill="#000" opacity="1">07:08</text><text text-anchor="middle" transform="translate(18.130471618186952,15)" font-family="sans-serif" font-size="10px" fill="#000" opacity="0">07:09</text><text text-anchor="middle" transform="translate(36.260943236373905,15)" font-family="sans-serif" font-size="10px" fill="#000" opacity="0">07:10</text><text text-anchor="middle" transform="translate(54.39141485456086,15)" font-family="sans-serif" font-size="10px" fill="#000" opacity="0">07:11</text><text text-anchor="middle" transform="translate(72.52188647274781,15)" font-family="sans-serif" font-size="10px" fill="#000" opacity="1">07:12</text><text text-anchor="middle" transform="translate(90.65235809093477,15)" font-family="sans-serif" font-size="10px" fill="#000" opacity="0">07:13</text><text text-anchor="middle" transform="translate(108.78282970912171,15)" font-family="sans-serif" font-size="10px" fill="#000" opacity="0">07:14</text><text text-anchor="middle" transform="translate(126.91330132730867,15)" font-family="sans-serif" font-size="10px" fill="#000" opacity="0">07:15</text><text text-anchor="middle" transform="translate(145.04377294549562,15)" font-family="sans-serif" font-size="10px" fill="#000" opacity="1">07:16</text><text text-anchor="middle" transform="translate(163.17424456368258,15)" font-family="sans-serif" font-size="10px" fill="#000" opacity="0">07:17</text><text text-anchor="middle" transform="translate(181.30471618186954,15)" font-family="sans-serif" font-size="10px" fill="#000" opacity="0">07:18</text><text text-anchor="middle" transform="translate(199.4351878000565,15)" font-family="sans-serif" font-size="10px" fill="#000" opacity="0">07:19</text><text text-anchor="middle" transform="translate(217.56565941824343,15)" font-family="sans-serif" font-size="10px" fill="#000" opacity="1">07:20</text><text text-anchor="middle" transform="translate(235.6961310364304,15)" font-family="sans-serif" font-size="10px" fill="#000" opacity="0">07:21</text><text text-anchor="middle" transform="translate(253.82660265461735,15)" font-family="sans-serif" font-size="10px" fill="#000" opacity="0">07:22</text><text text-anchor="middle" transform="translate(271.9570742728043,15)" font-family="sans-serif" font-size="10px" fill="#000" opacity="0">07:23</text><text text-anchor="middle" transform="translate(290.08754589099124,15)" font-family="sans-serif" font-size="10px" fill="#000" opacity="1">07:24</text><text text-anchor="middle" transform="translate(308.2180175091782,15)" font-family="sans-serif" font-size="10px" fill="#000" opacity="0">07:25</text><text text-anchor="middle" transform="translate(326.34848912736516,15)" font-family="sans-serif" font-size="10px" fill="#000" opacity="0">07:26</text><text text-anchor="middle" transform="translate(344.4789607455521,15)" font-family="sans-serif" font-size="10px" fill="#000" opacity="0">07:27</text><text text-anchor="middle" transform="translate(362.6094323637391,15)" font-family="sans-serif" font-size="10px" fill="#000" opacity="1">07:28</text><text text-anchor="middle" transform="translate(380.73990398192603,15)" font-family="sans-serif" font-size="10px" fill="#000" opacity="0">07:29</text><text text-anchor="middle" transform="translate(398.870375600113,15)" font-family="sans-serif" font-size="10px" fill="#000" opacity="0">07:30</text><text text-anchor="middle" transform="translate(417.0008472182999,15)" font-family="sans-serif" font-size="10px" fill="#000" opacity="0">07:31</text><text text-anchor="middle" transform="translate(435.13131883648686,15)" font-family="sans-serif" font-size="10px" fill="#000" opacity="1">07:32</text><text text-anchor="middle" transform="translate(453.2617904546738,15)" font-family="sans-serif" font-size="10px" fill="#000" opacity="0">07:33</text><text text-anchor="middle" transform="translate(471.3922620728608,15)" font-family="sans-serif" font-size="10px" fill="#000" opacity="0">07:34</text><text text-anchor="middle" transform="translate(489.52273369104773,15)" font-family="sans-serif" font-size="10px" fill="#000" opacity="0">07:35</text><text text-anchor="middle" transform="translate(507.6532053092347,15)" font-family="sans-serif" font-size="10px" fill="#000" opacity="1">07:36</text><text text-anchor="middle" transform="translate(525.7836769274217,15)" font-family="sans-serif" font-size="10px" fill="#000" opacity="0">07:37</text><text text-anchor="middle" transform="translate(543.9141485456086,15)" font-family="sans-serif" font-size="10px" fill="#000" opacity="0">07:38</text><text text-anchor="middle" transform="translate(562.0446201637956,15)" font-family="sans-serif" font-size="10px" fill="#000" opacity="0">07:39</text><text text-anchor="middle" transform="translate(580.1750917819825,15)" font-family="sans-serif" font-size="10px" fill="#000" opacity="1">07:40</text><text text-anchor="middle" transform="translate(598.3055634001695,15)" font-family="sans-serif" font-size="10px" fill="#000" opacity="0">07:41</text><text text-anchor="middle" transform="translate(616.4360350183564,15)" font-family="sans-serif" font-size="10px" fill="#000" opacity="0">07:42</text><text text-anchor="middle" transform="translate(634.5665066365434,15)" font-family="sans-serif" font-size="10px" fill="#000" opacity="0">07:43</text><text text-anchor="middle" transform="translate(652.6969782547303,15)" font-family="sans-serif" font-size="10px" fill="#000" opacity="1">07:44</text><text text-anchor="middle" transform="translate(670.8274498729173,15)" font-family="sans-serif" font-size="10px" fill="#000" opacity="0">07:45</text><text text-anchor="middle" transform="translate(688.9579214911042,15)" font-family="sans-serif" font-size="10px" fill="#000" opacity="0">07:46</text><text text-anchor="middle" transform="translate(707.0883931092912,15)" font-family="sans-serif" font-size="10px" fill="#000" opacity="0">07:47</text><text text-anchor="middle" transform="translate(725.2188647274781,15)" font-family="sans-serif" font-size="10px" fill="#000" opacity="1">07:48</text><text text-anchor="middle" transform="translate(743.349336345665,15)" font-family="sans-serif" font-size="10px" fill="#000" opacity="0">07:49</text><text text-anchor="middle" transform="translate(761.4798079638521,15)" font-family="sans-serif" font-size="10px" fill="#000" opacity="0">07:50</text><text text-anchor="middle" transform="translate(779.610279582039,15)" font-family="sans-serif" font-size="10px" fill="#000" opacity="0">07:51</text><text text-anchor="middle" transform="translate(797.740751200226,15)" font-family="sans-serif" font-size="10px" fill="#000" opacity="1">07:52</text><text text-anchor="middle" transform="translate(815.8712228184128,15)" font-family="sans-serif" font-size="10px" fill="#000" opacity="0">07:53</text><text text-anchor="middle" transform="translate(834.0016944365998,15)" font-family="sans-serif" font-size="10px" fill="#000" opacity="0">07:54</text><text text-anchor="middle" transform="translate(852.1321660547867,15)" font-family="sans-serif" font-size="10px" fill="#000" opacity="0">07:55</text><text text-anchor="middle" transform="translate(870.2626376729737,15)" font-family="sans-serif" font-size="10px" fill="#000" opacity="1">07:56</text><text text-anchor="middle" transform="translate(888.3931092911606,15)" font-family="sans-serif" font-size="10px" fill="#000" opacity="0">07:57</text><text text-anchor="middle" transform="translate(906.5235809093476,15)" font-family="sans-serif" font-size="10px" fill="#000" opacity="0">07:58</text><text text-anchor="middle" transform="translate(924.6540525275345,15)" font-family="sans-serif" font-size="10px" fill="#000" opacity="0">07:59</text><text text-anchor="middle" transform="translate(942.7845241457215,15)" font-family="sans-serif" font-size="10px" fill="#000" opacity="1">08 PM</text><text text-anchor="middle" transform="translate(960.9149957639085,15)" font-family="sans-serif" font-size="10px" fill="#000" opacity="0">08:01</text><text text-anchor="middle" transform="translate(979.0454673820955,15)" font-family="sans-serif" font-size="10px" fill="#000" opacity="0">08:02</text><text text-anchor="middle" transform="translate(997.1759390002824,15)" font-family="sans-serif" font-size="10px" fill="#000" opacity="0">08:03</text><text text-anchor="middle" transform="translate(1015.3064106184694,15)" font-family="sans-serif" font-size="10px" fill="#000" opacity="1">08:04</text><text text-anchor="middle" transform="translate(1033.4368822366564,15)" font-family="sans-serif" font-size="10px" fill="#000" opacity="0">08:05</text><text text-anchor="middle" transform="translate(1051.5673538548433,15)" font-family="sans-serif" font-size="10px" fill="#000" opacity="0">08:06</text><text text-anchor="end" transform="translate(1069.6978254730302,15)" font-family="sans-serif" font-size="10px" fill="#000" opacity="0">08:07</text></g><g class="mark-rule role-axis-domain" pointer-events="none"><line transform="translate(0,0)" x2="1070" y2="0" stroke="#888" stroke-width="1" opacity="1"/></g><g class="mark-text role-axis-title" pointer-events="none"><text text-anchor="middle" transform="translate(535,30)" font-family="sans-serif" font-size="11px" font-weight="bold" fill="#000" opacity="1">time</text></g></g><path class="foreground" aria-hidden="true" d="" pointer-events="none" display="none"/></g></g><g class="mark-group role-axis" role="graphics-symbol" aria-roledescription="axis" aria-label="Y-axis titled 'gauge, mean' for a linear scale with values from −2 to 9"><g transform="translate(0.5,0.5)"><path class="background" aria-hidden="true" d="M0,0h0v0h0Z" pointer-events="none"/><g><g class="mark-rule role-axis-tick" pointer-events="none"><line transform="translate(0,300)" x2="-5" y2="0" stroke="#888" stroke-width="1" opacity="1"/><line transform="translate(0,273)" x2="-5" y2="0" stroke="#888" stroke-width="1" opacity="1"/><line transform="translate(0,245)" x2="-5" y2="0" stroke="#888" stroke-width="1" opacity="1"/><line transform="translate(0,218)" x2="-5" y2="0" stroke="#888" stroke-width="1" opacity="1"/><line transform="translate(0,191)" x2="-5" y2="0" stroke="#888" stroke-width="1" opacity="1"/><line transform="translate(0,164)" x2="-5" y2="0" stroke="#888" stroke-width="1" opacity="1"/><line transform="translate(0,136)" x2="-5" y2="0" stroke="#888" stroke-width="1" opacity="1"/><line transform="translate(0,109)" x2="-5" y2="0" stroke="#888" stroke-width="1" opacity="1"/><line transform="translate(0,82)" x2="-5" y2="0" stroke="#888" stroke-width="1" opacity="1"/><line transform="translate(0,55)" x2="-5" y2="0" stroke="#888" stroke-width="1" opacity="1"/><line transform="translate(0,27)" x2="-5" y2="0" stroke="#888" stroke-width="1" opacity="1"/><line transform="translate(0,0)" x2="-5" y2="0" stroke="#888" stroke-width="1" opacity="1"/></g><g class="mark-text role-axis-label" pointer-events="none"><text text-anchor="end" transform="translate(-7,303)" font-family="sans-serif" font-size="10px" fill="#000" opacity="1">−2</text><text text-anchor="end" transform="translate(-7,275.7272727272727)" font-family="sans-serif" font-size="10px" fill="#000" opacity="1">−1</text><text text-anchor="end" transform="translate(-7,248.45454545454544)" font-family="sans-serif" font-size="10px" fill="#000" opacity="1">0</text><text text-anchor="end" transform="translate(-7,221.1818181818182)" font-family="sans-serif" font-size="10px" fill="#000" opacity="1">1</text><text text-anchor="end" transform="translate(-7,193.9090909090909)" font-family="sans-serif" font-size="10px" fill="#000" opacity="1">2</text><text text-anchor="end" transform="translate(-7,166.63636363636363)" font-family="sans-serif" font-size="10px" fill="#000" opacity="1">3</text><text text-anchor="end" transform="translate(-7,139.36363636363637)" font-family="sans-serif" font-size="10px" fill="#000" opacity="1">4</text><text text-anchor="end" transform="translate(-7,112.0909090909091)" font-family="sans-serif" font-size="10px" fill="#000" opacity="1">5</text><text text-anchor="end" transform="translate(-7,84.81818181818181)" font-family="sans-serif" font-size="10px" fill="#000" opacity="1">6</text><text text-anchor="end" transform="translate(-7,57.54545454545453)" font-family="sans-serif" font-size="10px" fill="#000" opacity="1">7</text><text text-anchor="end" transform="translate(-7,30.27272727272728)" font-family="sans-serif" font-size="10px" fill="#000" opacity="1">8</text><text text-anchor="end" transform="translate(-7,3)" font-family="sans-serif" font-size="10px" fill="#000" opacity="1">9</text></g><g class="mark-rule role-axis-domain" pointer-events="none"><line transform="translate(0,300)" x2="0" y2="-300" stroke="#888" stroke-width="1" opacity="1"/></g><g class="mark-text role-axis-title" pointer-events="none"><text text-anchor="middle" transform="translate(-22.4013671875,150) rotate(-90) translate(0,-2)" font-family="sans-serif" font-size="11px" font-weight="bold" fill="#000" opacity="1">gauge, mean</text></g></g><path class="foreground" aria-hidden="true" d="" pointer-events="none" display="none"/></g></g><g class="mark-line role-mark layer_0_marks" role="graphics-object" aria-roledescription="line mark container"><path aria-label="time: Sep 24, 2024; gauge: 5.77813546397" role="graphics-symbol" aria-roledescription="line mark" d="M0,87.869L18.13,189.762L36.261,132.496L54.391,207.825L72.522,111.645L90.652,153.738L108.783,65.063L126.913,56.661L145.044,124.693L163.174,161.263L181.305,6.956L199.435,70.868L217.566,147.218L235.696,154.812L253.827,77.649L271.957,155.552L290.39,89.95L308.52,215.99L326.651,127.497L344.781,123.179L362.912,187.078L381.042,241.604L399.173,237.402L417.303,226.453L435.433,205.71L453.564,234.745L471.694,226.773L489.825,230.756L507.955,251.622L526.086,220.109L544.216,262.898L562.347,257.606L580.477,279.348L598.608,259.384L616.738,218.72L634.869,208.854L652.999,225.69L671.13,218.433L689.26,256.311L707.391,187.276L725.521,159.931L743.652,219.758L761.782,157.782L779.912,189.096L798.043,136.429L816.173,124.577L834.304,155.741L852.434,128.483L870.565,154.404L888.695,144.254L906.826,117.346L924.956,144.233L943.087,108.909L961.217,188.49L979.348,185.903L997.478,36.168L1015.609,172.61L1033.739,202.212L1051.87,218.498L1070,127.448" stroke="blue" stroke-width="2"/></g><g class="mark-line role-mark layer_1_marks" role="graphics-object" aria-roledescription="line mark container"><path aria-label="time: Sep 24, 2024; mean: 2.23946180018" role="graphics-symbol" aria-roledescription="line mark" d="M0,184.378L18.13,171.658L36.261,166.295L54.391,157.94L72.522,148.754L90.652,148.881L108.783,136.816L126.913,130.627L145.044,138.446L163.174,126.061L181.305,132.87L199.435,132.121L217.566,128.776L235.696,137.226L253.827,146.795L271.957,159.478L290.39,164.193L308.52,148.193L326.651,168.183L344.781,177.895L362.912,189.825L381.042,198.428L399.173,200.095L417.303,208.376L435.433,219.291L453.564,233.906L471.694,225.429L489.825,241.268L507.955,244.796L526.086,236.864L544.216,236.601L562.347,233.521L580.477,238.503L598.608,212.796L616.738,225.328L634.869,224.989L652.999,214.565L671.13,212.69L689.26,196.579L707.391,182.376L725.521,184.152L743.652,175.808L761.782,161.685L779.912,158.909L798.043,149.374L816.173,142.438L834.304,139.133L852.434,137.635L870.565,123.175L888.695,129.818L906.826,135.407L924.956,129.18L943.087,133.174L961.217,138.08L979.348,149.289L997.478,150.165L1015.609,141.609L1033.739,162.323L1051.87,170.871L1070,180.853" stroke="green" stroke-width="2"/></g></g><path class="foreground" aria-hidden="true" d="" display="none"/></g></g></g></svg>